<mxfile host="app.diagrams.net" modified="2021-06-20T10:09:56.961Z" agent="5.0 (X11)" etag="aNPsdBwAeqTCrNPMPM3A" version="14.8.0" type="github">
  <diagram id="C5RBs43oDa-KdzZeNtuy" name="Page-1">
    <mxGraphModel dx="2177" dy="764" grid="1" gridSize="10" guides="1" tooltips="1" connect="1" arrows="1" fold="1" page="1" pageScale="1" pageWidth="827" pageHeight="1169" background="#F1FAEE" math="0" shadow="0">
      <root>
        <mxCell id="WIyWlLk6GJQsqaUBKTNV-0" />
        <mxCell id="WIyWlLk6GJQsqaUBKTNV-1" parent="WIyWlLk6GJQsqaUBKTNV-0" />
        <mxCell id="q2CKBH_PVFLBW5JlhvIC-4" value="Classes 1" parent="WIyWlLk6GJQsqaUBKTNV-0" />
        <mxCell id="q2CKBH_PVFLBW5JlhvIC-1" value="&lt;h3&gt;Server&lt;/h3&gt;" style="whiteSpace=wrap;html=1;fontColor=#1D3557;strokeColor=#457B9D;fillColor=#A8DADC;verticalAlign=top;rounded=1;" vertex="1" parent="q2CKBH_PVFLBW5JlhvIC-4">
          <mxGeometry x="-140" y="40" width="720" height="240" as="geometry" />
        </mxCell>
        <mxCell id="q2CKBH_PVFLBW5JlhvIC-2" value="&lt;div align=&quot;center&quot;&gt;&lt;h3&gt;Client&lt;/h3&gt;&lt;/div&gt;" style="whiteSpace=wrap;html=1;fontColor=#1D3557;strokeColor=#457B9D;fillColor=#A8DADC;align=center;verticalAlign=top;rounded=1;" vertex="1" parent="q2CKBH_PVFLBW5JlhvIC-4">
          <mxGeometry x="620" y="40" width="530" height="240" as="geometry" />
        </mxCell>
        <mxCell id="q2CKBH_PVFLBW5JlhvIC-7" value="Classes 2" parent="WIyWlLk6GJQsqaUBKTNV-0" />
        <mxCell id="q2CKBH_PVFLBW5JlhvIC-3" value="&lt;div&gt;&lt;h4&gt;Connection&lt;/h4&gt;&lt;/div&gt;" style="whiteSpace=wrap;html=1;align=center;verticalAlign=top;rounded=1;fillColor=#e3c800;strokeColor=#B09500;fontColor=#000000;" vertex="1" parent="q2CKBH_PVFLBW5JlhvIC-7">
          <mxGeometry x="640" y="110" width="160" height="150" as="geometry" />
        </mxCell>
        <mxCell id="q2CKBH_PVFLBW5JlhvIC-6" value="&lt;div&gt;&lt;h4&gt;Connection&lt;/h4&gt;&lt;/div&gt;" style="whiteSpace=wrap;html=1;verticalAlign=top;rounded=1;fillColor=#e3c800;strokeColor=#B09500;fontColor=#000000;" vertex="1" parent="q2CKBH_PVFLBW5JlhvIC-7">
          <mxGeometry x="-120" y="110" width="680" height="150" as="geometry" />
        </mxCell>
        <mxCell id="q2CKBH_PVFLBW5JlhvIC-5" value="Functions" parent="WIyWlLk6GJQsqaUBKTNV-0" />
        <mxCell id="q2CKBH_PVFLBW5JlhvIC-11" style="edgeStyle=orthogonalEdgeStyle;orthogonalLoop=1;jettySize=auto;html=1;fontColor=#1D3557;strokeColor=#457B9D;fillColor=#A8DADC;" edge="1" parent="q2CKBH_PVFLBW5JlhvIC-5" source="q2CKBH_PVFLBW5JlhvIC-8" target="q2CKBH_PVFLBW5JlhvIC-10">
          <mxGeometry relative="1" as="geometry" />
        </mxCell>
        <mxCell id="q2CKBH_PVFLBW5JlhvIC-8" value="&lt;h5&gt;ConnectToServer&lt;/h5&gt;" style="whiteSpace=wrap;html=1;strokeColor=#BD7000;fillColor=#f0a30a;rounded=1;fontColor=#000000;" vertex="1" parent="q2CKBH_PVFLBW5JlhvIC-5">
          <mxGeometry x="660" y="160" width="120" height="60" as="geometry" />
        </mxCell>
        <mxCell id="q2CKBH_PVFLBW5JlhvIC-13" style="edgeStyle=orthogonalEdgeStyle;orthogonalLoop=1;jettySize=auto;html=1;exitX=0;exitY=0.5;exitDx=0;exitDy=0;fontColor=#1D3557;strokeColor=#457B9D;fillColor=#A8DADC;" edge="1" parent="q2CKBH_PVFLBW5JlhvIC-5" source="q2CKBH_PVFLBW5JlhvIC-10" target="q2CKBH_PVFLBW5JlhvIC-12">
          <mxGeometry relative="1" as="geometry" />
        </mxCell>
        <mxCell id="q2CKBH_PVFLBW5JlhvIC-10" value="&lt;div&gt;&lt;h5&gt;AsyncConnect&lt;/h5&gt;&lt;/div&gt;" style="whiteSpace=wrap;html=1;strokeColor=#BD7000;fillColor=#f0a30a;rounded=1;fontColor=#000000;" vertex="1" parent="q2CKBH_PVFLBW5JlhvIC-5">
          <mxGeometry x="420" y="160" width="120" height="60" as="geometry" />
        </mxCell>
        <mxCell id="q2CKBH_PVFLBW5JlhvIC-15" style="edgeStyle=orthogonalEdgeStyle;orthogonalLoop=1;jettySize=auto;html=1;exitX=0;exitY=0.5;exitDx=0;exitDy=0;fontColor=#1D3557;strokeColor=#457B9D;fillColor=#A8DADC;" edge="1" parent="q2CKBH_PVFLBW5JlhvIC-5" source="q2CKBH_PVFLBW5JlhvIC-12" target="q2CKBH_PVFLBW5JlhvIC-14">
          <mxGeometry relative="1" as="geometry" />
        </mxCell>
        <mxCell id="q2CKBH_PVFLBW5JlhvIC-12" value="&lt;h5&gt;ReadHeader&lt;/h5&gt;" style="whiteSpace=wrap;html=1;strokeColor=#BD7000;fillColor=#f0a30a;rounded=1;fontColor=#000000;" vertex="1" parent="q2CKBH_PVFLBW5JlhvIC-5">
          <mxGeometry x="270" y="160" width="120" height="60" as="geometry" />
        </mxCell>
        <mxCell id="q2CKBH_PVFLBW5JlhvIC-17" style="edgeStyle=orthogonalEdgeStyle;orthogonalLoop=1;jettySize=auto;html=1;exitX=0;exitY=0.5;exitDx=0;exitDy=0;fontColor=#1D3557;strokeColor=#457B9D;fillColor=#A8DADC;" edge="1" parent="q2CKBH_PVFLBW5JlhvIC-5" source="q2CKBH_PVFLBW5JlhvIC-14" target="q2CKBH_PVFLBW5JlhvIC-16">
          <mxGeometry relative="1" as="geometry" />
        </mxCell>
        <mxCell id="q2CKBH_PVFLBW5JlhvIC-14" value="&lt;h5&gt;ReadHeader&lt;/h5&gt;" style="whiteSpace=wrap;html=1;strokeColor=#BD7000;fillColor=#f0a30a;rounded=1;fontColor=#000000;" vertex="1" parent="q2CKBH_PVFLBW5JlhvIC-5">
          <mxGeometry x="120" y="160" width="120" height="60" as="geometry" />
        </mxCell>
        <mxCell id="q2CKBH_PVFLBW5JlhvIC-18" style="edgeStyle=orthogonalEdgeStyle;orthogonalLoop=1;jettySize=auto;html=1;exitX=0.5;exitY=1;exitDx=0;exitDy=0;entryX=0.5;entryY=1;entryDx=0;entryDy=0;fontColor=#1D3557;strokeColor=#457B9D;fillColor=#A8DADC;" edge="1" parent="q2CKBH_PVFLBW5JlhvIC-5" source="q2CKBH_PVFLBW5JlhvIC-16" target="q2CKBH_PVFLBW5JlhvIC-12">
          <mxGeometry relative="1" as="geometry">
            <Array as="points">
              <mxPoint x="-5" y="240" />
              <mxPoint x="330" y="240" />
            </Array>
          </mxGeometry>
        </mxCell>
        <mxCell id="q2CKBH_PVFLBW5JlhvIC-16" value="&lt;h5&gt;AddToIncomingMessageQueue&lt;/h5&gt;" style="whiteSpace=wrap;html=1;strokeColor=#BD7000;fillColor=#f0a30a;rounded=1;fontColor=#000000;" vertex="1" parent="q2CKBH_PVFLBW5JlhvIC-5">
          <mxGeometry x="-100" y="160" width="190" height="60" as="geometry" />
        </mxCell>
        <mxCell id="q2CKBH_PVFLBW5JlhvIC-20" style="edgeStyle=orthogonalEdgeStyle;rounded=1;orthogonalLoop=1;jettySize=auto;html=1;exitX=0;exitY=0.5;exitDx=0;exitDy=0;fontColor=#1D3557;strokeColor=#457B9D;fillColor=#A8DADC;" edge="1" parent="q2CKBH_PVFLBW5JlhvIC-5" source="q2CKBH_PVFLBW5JlhvIC-19" target="q2CKBH_PVFLBW5JlhvIC-8">
          <mxGeometry relative="1" as="geometry" />
        </mxCell>
        <mxCell id="q2CKBH_PVFLBW5JlhvIC-19" value="&lt;h5&gt;Connect&lt;/h5&gt;" style="whiteSpace=wrap;html=1;strokeColor=#BD7000;fillColor=#f0a30a;rounded=1;fontColor=#000000;" vertex="1" parent="q2CKBH_PVFLBW5JlhvIC-5">
          <mxGeometry x="820" y="160" width="120" height="60" as="geometry" />
        </mxCell>
      </root>
    </mxGraphModel>
  </diagram>
</mxfile>
